<svg xmlns="http://www.w3.org/2000/svg" viewBox="0 0 24 24" fill="none" stroke="currentColor" stroke-width="2" stroke-linecap="round" stroke-linejoin="round">
  <defs>
    <linearGradient id="shield-gradient" x1="0%" y1="0%" x2="100%" y2="100%">
      <stop offset="0%" style="stop-color:rgb(79, 146, 255);stop-opacity:1" />
      <stop offset="100%" style="stop-color:rgb(34, 197, 94);stop-opacity:1" />
    </linearGradient>
  </defs>
  <path d="M20 13c0 5-3.5 7.5-7.66 8.95a1 1 0 0 1-.67-.01C7.5 20.5 4 18 4 13V6a1 1 0 0 1 1-1c2 0 4.5-1.2 6.24-2.72a1.17 1.17 0 0 1 1.52 0C14.51 3.81 17 5 19 5a1 1 0 0 1 1 1z" fill="url(#shield-gradient)" stroke="url(#shield-gradient)"/>
  <path d="m9 12 2 2 4-4" stroke="white" stroke-width="2.5"/>
</svg>
